<?xml version="1.0" standalone="no"?>
<svg viewBox="0 0 200 200" xmlns="http://www.w3.org/2000/svg">
  <path fill="#14b8a6" d="M41.8,-72.5C56.1,-64.1,70.9,-56.8,74.3,-44.9C77.8,-33,69.8,-16.5,65.1,-2.7C60.4,11.1,59,22.1,54.9,33C50.9,43.9,44.3,54.6,34.7,62.2C25.2,69.8,12.6,74.3,0.6,73.2C-11.3,72.1,-22.7,65.5,-34.7,59.3C-46.7,53.1,-59.4,47.4,-63.7,37.5C-68,27.7,-63.9,13.9,-65.7,-1C-67.5,-15.9,-75,-31.8,-72.6,-44.9C-70.2,-58,-57.8,-68.4,-44.1,-77C-30.3,-85.6,-15.1,-92.6,-0.7,-91.4C13.7,-90.2,27.5,-80.8,41.8,-72.5Z" transform="translate(100 100)" />
</svg>
